<svg width="1440" height="1024" viewBox="0 0 1440 1024" fill="none" xmlns="http://www.w3.org/2000/svg">
<g clip-path="url(#clip0_197_118)">
<rect width="1440" height="1024" fill="#161616"/>
<g opacity="0.09">
<line y1="974.763" x2="1440" y2="974.763" stroke="#FEFEFE" stroke-opacity="0.8" stroke-width="0.473373"/>
<line y1="909.763" x2="1440" y2="909.763" stroke="#FEFEFE" stroke-opacity="0.8" stroke-width="0.473373"/>
<line y1="844.763" x2="1440" y2="844.763" stroke="#FEFEFE" stroke-opacity="0.8" stroke-width="0.473373"/>
<line y1="779.763" x2="1440" y2="779.763" stroke="#FEFEFE" stroke-opacity="0.8" stroke-width="0.473373"/>
<line y1="714.763" x2="1440" y2="714.763" stroke="#FEFEFE" stroke-opacity="0.8" stroke-width="0.473373"/>
<line y1="649.763" x2="1440" y2="649.763" stroke="#FEFEFE" stroke-opacity="0.8" stroke-width="0.473373"/>
<line y1="584.763" x2="1440" y2="584.763" stroke="#FEFEFE" stroke-opacity="0.8" stroke-width="0.473373"/>
<line y1="519.763" x2="1440" y2="519.763" stroke="#FEFEFE" stroke-opacity="0.8" stroke-width="0.473373"/>
<line y1="454.763" x2="1440" y2="454.763" stroke="#FEFEFE" stroke-opacity="0.8" stroke-width="0.473373"/>
<line y1="389.763" x2="1440" y2="389.763" stroke="#FEFEFE" stroke-opacity="0.8" stroke-width="0.473373"/>
<line y1="324.763" x2="1440" y2="324.763" stroke="#FEFEFE" stroke-opacity="0.8" stroke-width="0.473373"/>
<line y1="259.763" x2="1440" y2="259.763" stroke="#FEFEFE" stroke-opacity="0.8" stroke-width="0.473373"/>
<line y1="194.762" x2="1440" y2="194.762" stroke="#FEFEFE" stroke-opacity="0.8" stroke-width="0.473373"/>
<line y1="129.762" x2="1440" y2="129.762" stroke="#FEFEFE" stroke-opacity="0.8" stroke-width="0.473373"/>
<line y1="64.7623" x2="1440" y2="64.7623" stroke="#FEFEFE" stroke-opacity="0.8" stroke-width="0.473373"/>
<line x1="37.2367" y1="1.03459e-08" x2="37.2366" y2="1024" stroke="#FEFEFE" stroke-opacity="0.8" stroke-width="0.473373"/>
<line x1="102.237" y1="1.03459e-08" x2="102.237" y2="1024" stroke="#FEFEFE" stroke-opacity="0.8" stroke-width="0.473373"/>
<line x1="167.237" y1="1.03459e-08" x2="167.237" y2="1024" stroke="#FEFEFE" stroke-opacity="0.8" stroke-width="0.473373"/>
<line x1="232.237" y1="1.03459e-08" x2="232.237" y2="1024" stroke="#FEFEFE" stroke-opacity="0.8" stroke-width="0.473373"/>
<line x1="297.237" y1="1.03459e-08" x2="297.237" y2="1024" stroke="#FEFEFE" stroke-opacity="0.8" stroke-width="0.473373"/>
<line x1="362.237" y1="1.03459e-08" x2="362.237" y2="1024" stroke="#FEFEFE" stroke-opacity="0.8" stroke-width="0.473373"/>
<line x1="427.237" y1="1.03459e-08" x2="427.237" y2="1024" stroke="#FEFEFE" stroke-opacity="0.8" stroke-width="0.473373"/>
<line x1="492.237" y1="1.03459e-08" x2="492.237" y2="1024" stroke="#FEFEFE" stroke-opacity="0.8" stroke-width="0.473373"/>
<line x1="557.237" y1="1.03459e-08" x2="557.237" y2="1024" stroke="#FEFEFE" stroke-opacity="0.8" stroke-width="0.473373"/>
<line x1="622.237" y1="1.03459e-08" x2="622.237" y2="1024" stroke="#FEFEFE" stroke-opacity="0.8" stroke-width="0.473373"/>
<line x1="687.237" y1="1.03459e-08" x2="687.237" y2="1024" stroke="#FEFEFE" stroke-opacity="0.8" stroke-width="0.473373"/>
<line x1="752.238" y1="1.03459e-08" x2="752.238" y2="1024" stroke="#FEFEFE" stroke-opacity="0.8" stroke-width="0.473373"/>
<line x1="817.238" y1="1.03459e-08" x2="817.238" y2="1024" stroke="#FEFEFE" stroke-opacity="0.8" stroke-width="0.473373"/>
<line x1="882.238" y1="1.03459e-08" x2="882.238" y2="1024" stroke="#FEFEFE" stroke-opacity="0.8" stroke-width="0.473373"/>
<line x1="947.238" y1="1.03459e-08" x2="947.238" y2="1024" stroke="#FEFEFE" stroke-opacity="0.8" stroke-width="0.473373"/>
<line x1="1012.24" y1="1.03459e-08" x2="1012.24" y2="1024" stroke="#FEFEFE" stroke-opacity="0.8" stroke-width="0.473373"/>
<line x1="1077.24" y1="1.03459e-08" x2="1077.24" y2="1024" stroke="#FEFEFE" stroke-opacity="0.8" stroke-width="0.473373"/>
<line x1="1142.24" y1="1.03459e-08" x2="1142.24" y2="1024" stroke="#FEFEFE" stroke-opacity="0.8" stroke-width="0.473373"/>
<line x1="1207.24" y1="1.03459e-08" x2="1207.24" y2="1024" stroke="#FEFEFE" stroke-opacity="0.8" stroke-width="0.473373"/>
<line x1="1272.24" y1="1.03459e-08" x2="1272.24" y2="1024" stroke="#FEFEFE" stroke-opacity="0.8" stroke-width="0.473373"/>
<line x1="1337.24" y1="1.03459e-08" x2="1337.24" y2="1024" stroke="#FEFEFE" stroke-opacity="0.8" stroke-width="0.473373"/>
<line x1="1402.24" y1="1.03459e-08" x2="1402.24" y2="1024" stroke="#FEFEFE" stroke-opacity="0.8" stroke-width="0.473373"/>
</g>
<g opacity="0.5">
<rect x="818" y="780" width="65" height="65" fill="#FEFEFE" fill-opacity="0.06"/>
<rect x="492.083" y="780" width="65" height="65" fill="#FEFEFE" fill-opacity="0.04"/>
<rect x="557.201" y="520" width="65" height="64.0714" fill="#FEFEFE" fill-opacity="0.05"/>
<rect x="492" y="327.475" width="65" height="64.0714" fill="#FEFEFE" fill-opacity="0.05"/>
<rect x="492" y="520" width="65" height="64.0714" fill="#FEFEFE" fill-opacity="0.05"/>
<rect x="427" y="780" width="65" height="65" fill="#FEFEFE" fill-opacity="0.04"/>
<rect x="427" y="845.083" width="65" height="65.9286" fill="#FEFEFE" fill-opacity="0.04"/>
<rect x="297" y="715" width="65" height="65" fill="#FEFEFE" fill-opacity="0.04"/>
<rect x="297" y="260" width="65" height="65" fill="#FEFEFE" fill-opacity="0.04"/>
<rect x="232" y="195" width="65" height="65" fill="#FEFEFE" fill-opacity="0.04"/>
<rect x="167" y="195" width="65" height="65" fill="#FEFEFE" fill-opacity="0.04"/>
<rect x="232" y="260" width="65" height="65.9155" fill="#FEFEFE" fill-opacity="0.04"/>
<rect x="492" y="130" width="65" height="65" fill="#FEFEFE" fill-opacity="0.06"/>
<rect x="297" y="390" width="65" height="65" fill="#FEFEFE" fill-opacity="0.04"/>
<rect x="1077" y="714.831" width="65" height="65" fill="#FEFEFE" fill-opacity="0.05"/>
<rect x="1142.08" y="779.913" width="65" height="65" fill="#FEFEFE" fill-opacity="0.05"/>
</g>
<rect width="1440" height="1024" fill="url(#paint0_radial_197_118)"/>
</g>
<defs>
<radialGradient id="paint0_radial_197_118" cx="0" cy="0" r="1" gradientUnits="userSpaceOnUse" gradientTransform="translate(720 512) rotate(90) scale(512)">
<stop stop-color="#161616" stop-opacity="0"/>
<stop offset="1" stop-color="#161616" stop-opacity="0.7"/>
</radialGradient>
<clipPath id="clip0_197_118">
<rect width="1440" height="1024" fill="white"/>
</clipPath>
</defs>
</svg>
