<svg width="16" height="16" viewBox="0 0 16 16" fill="none" xmlns="http://www.w3.org/2000/svg">
<g clip-path="url(#clip0_366_644)">
<path d="M1.37859 3.65499L7.29525 9.57233C7.47029 9.74748 7.70408 9.85147 7.95138 9.86415C8.19867 9.87684 8.44188 9.79732 8.63392 9.64099L8.70992 9.57233L14.6226 3.65899C14.6419 3.73233 14.6546 3.80699 14.6613 3.88366L14.6666 4.00033V12.0003C14.6667 12.3367 14.5396 12.6607 14.3109 12.9074C14.0822 13.154 13.7687 13.3051 13.4333 13.3303L13.3333 13.3337H2.66659C2.3302 13.3338 2.00621 13.2067 1.75955 12.978C1.5129 12.7493 1.36181 12.4358 1.33659 12.1003L1.33325 12.0003V4.00033C1.33325 3.92033 1.33992 3.84299 1.35325 3.76699L1.37859 3.65499ZM13.3333 2.66699C13.4139 2.66699 13.4933 2.67366 13.5699 2.68766L13.6833 2.71366L8.00325 8.39366L2.32125 2.71233C2.39459 2.69233 2.47059 2.67899 2.54792 2.67233L2.66659 2.66699H13.3333Z" fill="white"/>
</g>
<defs>
<clipPath id="clip0_366_644">
<rect width="16" height="16" fill="white"/>
</clipPath>
</defs>
</svg>
