<svg width="16" height="16" viewBox="0 0 16 16" fill="none" xmlns="http://www.w3.org/2000/svg">
<g clip-path="url(#clip0_366_640)">
<path fill-rule="evenodd" clip-rule="evenodd" d="M7.99992 1.33301C4.31792 1.33301 1.33325 4.31767 1.33325 7.99967C1.33325 9.25967 1.68325 10.4397 2.29192 11.445L1.69725 13.4663C1.66311 13.5824 1.66086 13.7055 1.69075 13.8227C1.72063 13.94 1.78155 14.047 1.86709 14.1325C1.95263 14.218 2.05964 14.279 2.17686 14.3088C2.29409 14.3387 2.4172 14.3365 2.53325 14.3023L4.55458 13.7077C5.5937 14.3364 6.7854 14.668 7.99992 14.6663C11.6819 14.6663 14.6666 11.6817 14.6666 7.99967C14.6666 4.31767 11.6819 1.33301 7.99992 1.33301ZM6.49192 9.50834C7.84058 10.8563 9.12792 11.0343 9.58258 11.051C10.2739 11.0763 10.9473 10.5483 11.2093 9.93567C11.2423 9.85946 11.2543 9.77576 11.244 9.69332C11.2337 9.61088 11.2014 9.53272 11.1506 9.46701C10.7853 9.00034 10.2913 8.66501 9.80858 8.33167C9.70781 8.262 9.58397 8.23404 9.46303 8.25368C9.3421 8.27332 9.23347 8.33902 9.15992 8.43701L8.75992 9.04701C8.73889 9.0798 8.70612 9.10332 8.66832 9.11274C8.63052 9.12216 8.59054 9.11677 8.55658 9.09767C8.28525 8.94234 7.88992 8.67834 7.60592 8.39434C7.32192 8.11034 7.07392 7.73301 6.93459 7.47901C6.91731 7.44674 6.91232 7.4093 6.92053 7.37363C6.92874 7.33796 6.9496 7.30647 6.97925 7.28501L7.59525 6.82767C7.68316 6.75124 7.73989 6.64514 7.75465 6.52958C7.7694 6.41403 7.74114 6.29708 7.67525 6.20101C7.37658 5.76367 7.02859 5.20767 6.52392 4.83901C6.45879 4.79181 6.38249 4.76238 6.30254 4.75361C6.22259 4.74485 6.14173 4.75705 6.06792 4.78901C5.45459 5.05167 4.92392 5.72501 4.94925 6.41767C4.96592 6.87234 5.14392 8.15967 6.49192 9.50834Z" fill="white"/>
</g>
<defs>
<clipPath id="clip0_366_640">
<rect width="16" height="16" fill="white"/>
</clipPath>
</defs>
</svg>
