<svg width="16" height="16" viewBox="0 0 16 16" fill="none" xmlns="http://www.w3.org/2000/svg">
<g clip-path="url(#clip0_366_648)">
<path d="M12.6666 9.33366C12.7913 9.33366 12.9135 9.36864 13.0194 9.43464C13.1252 9.50064 13.2104 9.59499 13.2653 9.70699L13.2973 9.78499L13.3839 10.037C13.4754 10.3051 13.6228 10.5507 13.8163 10.7576C14.0099 10.9645 14.2451 11.1279 14.5066 11.237L14.6299 11.2837L14.8819 11.3697C15.0067 11.4122 15.1161 11.4909 15.1962 11.5956C15.2763 11.7003 15.3235 11.8265 15.332 11.958C15.3404 12.0896 15.3096 12.2208 15.2435 12.3348C15.1774 12.4489 15.0789 12.5409 14.9606 12.599L14.8819 12.631L14.6299 12.7177C14.3618 12.8091 14.1162 12.9565 13.9093 13.1501C13.7024 13.3436 13.539 13.5789 13.4299 13.8403L13.3833 13.9637L13.2973 14.2157C13.2547 14.3405 13.1761 14.4498 13.0713 14.5299C12.9666 14.61 12.8405 14.6573 12.7089 14.6657C12.5773 14.6741 12.4462 14.6433 12.3321 14.5772C12.218 14.5111 12.1261 14.4127 12.0679 14.2943L12.0359 14.2157L11.9493 13.9637C11.8578 13.6955 11.7104 13.4499 11.5169 13.243C11.3233 13.0362 11.088 12.8728 10.8266 12.7637L10.7033 12.717L10.4513 12.631C10.3265 12.5884 10.2171 12.5098 10.137 12.4051C10.0569 12.3003 10.0096 12.1742 10.0012 12.0426C9.99278 11.911 10.0236 11.7799 10.0897 11.6658C10.1558 11.5517 10.2542 11.4598 10.3726 11.4017L10.4513 11.3697L10.7033 11.283C10.9714 11.1915 11.217 11.0441 11.4239 10.8506C11.6308 10.6571 11.7942 10.4218 11.9033 10.1603L11.9499 10.037L12.0359 9.78499C12.0808 9.65338 12.1658 9.53912 12.2789 9.45819C12.392 9.37726 12.5275 9.33371 12.6666 9.33366ZM14.6666 4.64566V9.66033L14.6453 9.60633L14.5593 9.35366C14.4279 8.96919 14.1825 8.63385 13.8558 8.39229C13.5291 8.15072 13.1366 8.01439 12.7305 8.00143C12.3244 7.98847 11.924 8.09951 11.5826 8.31975C11.2411 8.54 10.9749 8.85901 10.8193 9.23433L10.7739 9.35433L10.6873 9.60633C10.6586 9.69045 10.6134 9.768 10.5543 9.8344C10.4952 9.90081 10.4235 9.95473 10.3433 9.99299L10.2726 10.0217L10.0199 10.1077C9.71895 10.2105 9.44685 10.3836 9.22619 10.6127C9.00554 10.8418 8.84269 11.1201 8.75117 11.4247C8.65966 11.7293 8.6421 12.0514 8.69997 12.3641C8.75784 12.6769 8.88947 12.9713 9.08392 13.223L9.17592 13.3337H2.66659C2.3302 13.3338 2.00621 13.2067 1.75955 12.978C1.5129 12.7493 1.36181 12.4358 1.33659 12.1003L1.33325 12.0003V4.64566L7.35992 9.66833C7.52612 9.80672 7.73271 9.88751 7.9487 9.89857C8.1647 9.90963 8.37846 9.85036 8.55792 9.72966L8.63992 9.66833L14.6666 4.64566ZM13.3333 2.66699C13.7093 2.66699 14.0486 2.82233 14.2906 3.07233L14.3679 3.15899L7.99992 8.46566L1.63192 3.15899C1.85192 2.88899 2.17592 2.70633 2.54259 2.67233L2.66659 2.66699H13.3333Z" fill="white"/>
</g>
<defs>
<clipPath id="clip0_366_648">
<rect width="16" height="16" fill="white"/>
</clipPath>
</defs>
</svg>
