<svg width="48" height="48" viewBox="0 0 48 48" fill="none" xmlns="http://www.w3.org/2000/svg">
<path fill-rule="evenodd" clip-rule="evenodd" d="M14.1037 0.666749H33.8965C35.7747 0.666721 37.3249 0.666698 38.5877 0.76987C39.8992 0.877029 41.1049 1.10701 42.2373 1.68402C43.9935 2.57884 45.4213 4.00666 46.3161 5.76284C46.8932 6.89529 47.1231 8.10093 47.2303 9.41249C47.3335 10.6753 47.3334 12.2254 47.3334 14.1037V33.8965C47.3334 35.7747 47.3335 37.3249 47.2303 38.5877C47.1231 39.8992 46.8932 41.1049 46.3161 42.2373C45.4213 43.9935 43.9935 45.4213 42.2373 46.3161C41.1049 46.8932 39.8992 47.1231 38.5877 47.2303C37.3249 47.3335 35.7747 47.3334 33.8965 47.3334H14.1037C12.2254 47.3334 10.6753 47.3335 9.41249 47.2303C8.10093 47.1231 6.89529 46.8932 5.76284 46.3161C4.00666 45.4213 2.57884 43.9935 1.68402 42.2373C1.10701 41.1049 0.877029 39.8992 0.76987 38.5877C0.666698 37.3249 0.666721 35.7747 0.666749 33.8965V14.1037C0.666721 12.2255 0.666698 10.6753 0.76987 9.41249C0.877029 8.10093 1.10701 6.89529 1.68402 5.76284C2.57884 4.00666 4.00666 2.57884 5.76284 1.68402C6.89529 1.10701 8.10093 0.877029 9.41249 0.76987C10.6753 0.666698 12.2255 0.666721 14.1037 0.666749ZM12.8167 38.4833L38.4833 12.8167C39.3946 11.9054 39.3946 10.4281 38.4833 9.51683C37.5721 8.60561 36.0947 8.60561 35.1835 9.51683L9.51683 35.1835C8.60561 36.0947 8.60561 37.5721 9.51683 38.4833C10.4281 39.3946 11.9054 39.3946 12.8167 38.4833ZM18.1667 11.1667C18.1667 9.87808 17.1221 8.83342 15.8334 8.83342C14.5448 8.83342 13.5001 9.87808 13.5001 11.1667V13.5001H11.1667C9.87808 13.5001 8.83342 14.5448 8.83342 15.8334C8.83342 17.1221 9.87808 18.1667 11.1667 18.1667H13.5001V20.5001C13.5001 21.7887 14.5448 22.8334 15.8334 22.8334C17.1221 22.8334 18.1667 21.7887 18.1667 20.5001V18.1667H20.5001C21.7887 18.1667 22.8334 17.1221 22.8334 15.8334C22.8334 14.5448 21.7887 13.5001 20.5001 13.5001H18.1667V11.1667ZM25.1667 32.1667C25.1667 30.8781 26.2114 29.8334 27.5001 29.8334H36.8334C38.1221 29.8334 39.1667 30.8781 39.1667 32.1667C39.1667 33.4554 38.1221 34.5001 36.8334 34.5001H27.5001C26.2114 34.5001 25.1667 33.4554 25.1667 32.1667Z" fill="#C4F042"/>
</svg>
